<svg width="44" height="50" viewBox="0 0 44 50" fill="none" xmlns="http://www.w3.org/2000/svg">
<path d="M38.0901 40.69L37.3301 39.37L41.9901 36.68V31.62H43.5101V37.12C43.5101 37.39 43.3601 37.64 43.1301 37.78L38.0901 40.69Z" fill="#1A1416"/>
<path d="M21.75 50C21.62 50 21.49 49.97 21.37 49.9L0.38 37.78C0.14 37.64 0 37.39 0 37.12V12.88C0 12.61 0.15 12.36 0.38 12.22L21.37 0.0999951C21.61 -0.0400049 21.9 -0.0400049 22.13 0.0999951L43.12 12.22C43.36 12.36 43.5 12.61 43.5 12.88V27H41.98V13.32L21.75 1.64L1.52 13.32V36.68L21.75 48.36L33.37 41.65L34.13 42.97L22.13 49.9C22.01 49.97 21.88 50 21.75 50Z" fill="#1A1416"/>
<path d="M19.23 42.34C18.67 42.34 18.1 42.19 17.59 41.89L8.40003 36.58C6.32003 35.38 5.03003 33.15 5.03003 30.75V28.97C5.03003 27.34 5.86003 25.85 7.24003 24.99L8.58003 24.15C9.51003 23.57 10.07 22.56 10.07 21.46C10.07 19.48 11.14 17.63 12.85 16.64L20.17 12.42C20.67 12.13 20.98 11.59 20.98 11.01V10.94C20.98 10.3 20.65 9.72996 20.1 9.40996C19.55 9.08996 18.89 9.08996 18.35 9.40996L9.16003 14.72C7.55003 15.65 6.56003 17.38 6.56003 19.23V20.74H5.04003V19.23C5.04003 16.83 6.33003 14.6 8.41003 13.4L17.6 8.08996C18.63 7.49996 19.85 7.49996 20.88 8.08996C21.91 8.67996 22.52 9.74996 22.52 10.94V11.01C22.52 12.13 21.92 13.18 20.95 13.74L13.63 17.96C12.38 18.68 11.61 20.02 11.61 21.46C11.61 23.09 10.78 24.58 9.40003 25.44L8.06003 26.28C7.13003 26.86 6.57003 27.87 6.57003 28.97V30.75C6.57003 32.61 7.57003 34.33 9.17003 35.26L18.36 40.57C18.91 40.89 19.57 40.89 20.11 40.57C20.66 40.25 20.99 39.68 20.99 39.04V38.97C20.99 38.39 20.68 37.85 20.18 37.56L15.92 35.1L16.68 33.78L20.94 36.24C21.91 36.8 22.52 37.85 22.52 38.97V39.04C22.52 40.23 21.91 41.3 20.88 41.89C20.37 42.19 19.8 42.33 19.24 42.33L19.23 42.34Z" fill="#D57DB2"/>
<path d="M21.7501 32.54C21.6201 32.54 21.4901 32.51 21.3701 32.44L15.5001 29.05C15.2601 28.91 15.1201 28.66 15.1201 28.39V21.61C15.1201 21.34 15.2701 21.09 15.5001 20.95L21.3701 17.56C21.6101 17.42 21.9001 17.42 22.1301 17.56L28.0001 20.95C28.2401 21.09 28.3801 21.34 28.3801 21.61V28.39C28.3801 28.66 28.2301 28.91 28.0001 29.05L22.1301 32.44C22.0101 32.51 21.8801 32.54 21.7501 32.54ZM16.6401 27.95L21.7501 30.9L26.8601 27.95V22.05L21.7501 19.1L16.6401 22.05V27.95Z" fill="#1A1416"/>
<path d="M28.0071 27.7359L27.2471 29.0522L41.9955 37.5672L42.7555 36.2509L28.0071 27.7359Z" fill="#1A1416"/>
<path d="M11.3699 31.53C10.7099 31.53 10.1799 31 10.1799 30.34C10.1799 29.68 10.7099 29.15 11.3699 29.15C12.0299 29.15 12.5599 29.68 12.5599 30.34C12.5599 31 12.0299 31.53 11.3699 31.53Z" fill="#1A1416"/>
<path d="M28.32 15.71C26.87 15.71 25.7 14.53 25.7 13.09C25.7 11.65 26.88 10.47 28.32 10.47C29.76 10.47 30.94 11.65 30.94 13.09C30.94 14.53 29.76 15.71 28.32 15.71ZM28.32 11.99C27.7099 11.99 27.2199 12.48 27.2199 13.09C27.2199 13.7 27.7099 14.19 28.32 14.19C28.93 14.19 29.42 13.7 29.42 13.09C29.42 12.48 28.93 11.99 28.32 11.99Z" fill="#1A1416"/>
<path d="M28.3199 39.27C26.7199 39.27 25.4199 37.97 25.4199 36.37C25.4199 34.77 26.7199 33.47 28.3199 33.47C29.9199 33.47 31.2199 34.77 31.2199 36.37C31.2199 37.97 29.9199 39.27 28.3199 39.27ZM28.3199 34.99C27.5599 34.99 26.9399 35.61 26.9399 36.37C26.9399 37.13 27.5599 37.75 28.3199 37.75C29.0799 37.75 29.6999 37.13 29.6999 36.37C29.6999 35.61 29.0799 34.99 28.3199 34.99Z" fill="#1A1416"/>
<path d="M35.1899 27.7599C34.7399 27.7599 34.2899 27.6699 33.8599 27.4799C32.6699 26.9599 31.9099 25.7799 31.9099 24.4799V20.1599C31.9099 18.9899 32.5399 17.8999 33.5499 17.3199C34.5799 16.7299 35.7999 16.7299 36.8299 17.3199C37.8599 17.9099 38.4699 18.9799 38.4699 20.1599V24.4799C38.4699 25.5899 37.9099 26.6199 36.9799 27.2299C36.4399 27.5799 35.8199 27.7599 35.1899 27.7599ZM34.3099 18.6299C33.7699 18.9399 33.4299 19.5299 33.4299 20.1499V24.4699C33.4299 25.1699 33.8399 25.7999 34.4799 26.0799C35.0299 26.3199 35.6399 26.2799 36.1499 25.9499C36.6599 25.6199 36.9499 25.0799 36.9499 24.4799V20.1599C36.9499 19.5199 36.6199 18.9599 36.0699 18.6399C35.5199 18.3199 34.8599 18.3199 34.3099 18.6399V18.6299Z" fill="#D57DB2"/>
</svg>
